<svg xmlns="http://www.w3.org/2000/svg" width="600" height="400" viewBox="0 0 600 400"><rect width="100%" height="100%" fill="#DDDDDD"/><path fill="#999999" d="m172.96 190.32-3.8 5.26q-.64.82-1.26 1.29-.61.47-1.78.47-1.11 0-2.16-.67-1.06-.68-2.52-1.53-1.46-.84-3.48-1.52-2.02-.67-5-.67-3.81 0-6.67 1.38-2.87 1.37-4.77 3.94-1.9 2.58-2.84 6.23-.93 3.66-.93 8.28 0 4.8 1.02 8.54 1.02 3.75 2.96 6.29 1.93 2.55 4.68 3.86 2.74 1.32 6.2 1.32 3.45 0 5.58-.85 2.14-.85 3.6-1.87t2.55-1.87q1.08-.85 2.42-.85 1.76 0 2.64 1.34l4.15 5.27q-2.4 2.81-5.21 4.71t-5.82 3.04-6.2 1.61-6.35.47q-5.55 0-10.47-2.08-4.91-2.08-8.6-6.05-3.68-3.98-5.82-9.74-2.13-5.77-2.13-13.14 0-6.61 1.9-12.25 1.9-5.65 5.58-9.77 3.69-4.13 9.13-6.47t12.52-2.34q6.73 0 11.79 2.17 5.06 2.16 9.09 6.2m46.86-7.43h14.45v60.02h-8.83q-2.87 0-3.63-2.63l-.99-4.8q-3.69 3.74-8.13 6.06-4.45 2.31-10.48 2.31-4.91 0-8.68-1.67-3.78-1.67-6.35-4.71t-3.89-7.23q-1.32-4.18-1.32-9.21v-38.14h14.45v38.14q0 5.5 2.55 8.51 2.54 3.02 7.63 3.02 3.75 0 7.02-1.67 3.28-1.67 6.2-4.59zm29.19 0h14.51v60.02h-14.51zm16.5-17.49q0 1.87-.76 3.51t-2.02 2.86q-1.26 1.23-2.95 1.96-1.7.73-3.63.73-1.87 0-3.54-.73t-2.89-1.96q-1.23-1.22-1.96-2.86t-.73-3.51q0-1.93.73-3.63t1.96-2.92q1.22-1.23 2.89-1.96 1.67-.74 3.54-.74 1.93 0 3.63.74 1.69.73 2.95 1.96 1.26 1.22 2.02 2.92t.76 3.63m52.65 23.98-3.27 5.21q-.59.93-1.23 1.32-.65.38-1.64.38-1.05 0-2.25-.59-1.2-.58-2.78-1.32-1.58-.73-3.6-1.31-2.02-.59-4.77-.59-4.27 0-6.7 1.82-2.42 1.81-2.42 4.73 0 1.94 1.25 3.25 1.26 1.32 3.34 2.31 2.08 1 4.71 1.79t5.35 1.72q2.72.94 5.35 2.14 2.64 1.2 4.71 3.04 2.08 1.84 3.34 4.42 1.25 2.57 1.25 6.2 0 4.33-1.55 7.98-1.55 3.66-4.59 6.32t-7.51 4.15q-4.48 1.5-10.33 1.5-3.1 0-6.05-.56-2.96-.56-5.68-1.55t-5.03-2.34-4.07-2.93l3.34-5.49q.64-1 1.52-1.53.88-.52 2.22-.52 1.35 0 2.55.76t2.78 1.64q1.58.87 3.71 1.63 2.14.77 5.41.77 2.58 0 4.42-.62 1.84-.61 3.04-1.61 1.2-.99 1.76-2.31.55-1.31.55-2.72 0-2.1-1.26-3.45-1.25-1.35-3.33-2.34t-4.74-1.78-5.44-1.73-5.44-2.19q-2.66-1.26-4.74-3.19t-3.33-4.74q-1.26-2.81-1.26-6.79 0-3.68 1.46-7.02 1.46-3.33 4.3-5.82 2.84-2.48 7.08-3.98 4.24-1.49 9.8-1.49 6.2 0 11.29 2.05t8.48 5.38m11.99-6.49h14.51v60.02h-14.51zm16.5-17.49q0 1.87-.76 3.51t-2.02 2.86q-1.26 1.23-2.95 1.96-1.7.73-3.63.73-1.87 0-3.54-.73t-2.89-1.96q-1.23-1.22-1.96-2.86-.74-1.64-.74-3.51 0-1.93.74-3.63.73-1.7 1.96-2.92 1.22-1.23 2.89-1.96 1.67-.74 3.54-.74 1.93 0 3.63.74 1.69.73 2.95 1.96 1.26 1.22 2.02 2.92t.76 3.63m25.27 20.12 1 4.74q1.81-1.81 3.83-3.36t4.27-2.64q2.25-1.08 4.83-1.69 2.57-.62 5.61-.62 4.92 0 8.72 1.67t6.35 4.68q2.54 3.01 3.86 7.2 1.31 4.18 1.31 9.21v38.2h-14.45v-38.2q0-5.5-2.51-8.51-2.52-3.02-7.67-3.02-3.74 0-7.02 1.7-3.27 1.7-6.2 4.62v43.41H359.4v-60.02h8.84q2.81 0 3.68 2.63M436.8 206h27.26q0-2.81-.79-5.3-.79-2.48-2.37-4.36-1.58-1.87-4.01-2.95-2.42-1.08-5.64-1.08-6.26 0-9.86 3.57-3.6 3.56-4.59 10.12m36.85 8.71h-37.14q.35 4.62 1.63 7.99 1.29 3.36 3.4 5.56 2.1 2.19 5 3.27t6.41 1.08 6.05-.82q2.54-.81 4.45-1.81 1.9-.99 3.33-1.81t2.78-.82q1.81 0 2.69 1.34l4.15 5.27q-2.39 2.81-5.38 4.71-2.98 1.9-6.23 3.04t-6.61 1.61-6.52.47q-6.26 0-11.64-2.08-5.39-2.08-9.36-6.14-3.98-4.07-6.26-10.06-2.28-6-2.28-13.9 0-6.14 1.98-11.55 1.99-5.41 5.71-9.42 3.71-4.01 9.07-6.35 5.35-2.34 12.08-2.34 5.67 0 10.47 1.82 4.79 1.81 8.25 5.29 3.45 3.48 5.41 8.54t1.96 11.56q0 3.27-.7 4.41-.71 1.14-2.7 1.14"/></svg>