<svg xmlns="http://www.w3.org/2000/svg" width="600" height="400" viewBox="0 0 600 400"><rect width="100%" height="100%" fill="#DDDDDD"/><path fill="#999999" d="M134.155 220.665h-13.43v-39.1h13.43q7.17 0 11.82 4.58 4.64 4.58 4.64 11.75v6.47q0 7.2-4.64 11.75-4.65 4.55-11.82 4.55m-.4-33.06h-5.19v27.04h5.19q4.21 0 6.6-2.84 2.39-2.85 2.39-7.44v-6.53q0-4.54-2.39-7.38-2.39-2.85-6.6-2.85m35.23 33.62q-6.28 0-10.04-4.02-3.76-4.03-3.76-10.24v-1.07q0-6.47 3.56-10.66 3.55-4.19 9.54-4.16 5.88 0 9.13 3.54 3.25 3.55 3.25 9.59v4.27h-17.35l-.05.16q.22 2.87 1.92 4.73 1.71 1.85 4.63 1.85 2.61 0 4.33-.53 1.72-.52 3.76-1.65l2.12 4.84q-1.77 1.45-4.65 2.4-2.87.95-6.39.95m-.7-24.11q-2.17 0-3.43 1.66-1.27 1.67-1.56 4.38l.08.13h9.61v-.69q0-2.5-1.17-3.99-1.16-1.49-3.53-1.49m25.19-18.34v41.89h-7.84v-41.89zm14.69 12.83v29.06h-7.84v-29.06zm0-12.83v5.88h-7.84v-5.88zm18.64 36.44q2.1 0 3.36-1.22 1.26-1.23 1.26-3.27h7.12l.08.16q.1 4.41-3.32 7.38-3.42 2.96-8.5 2.96-6.5 0-10.02-4.1-3.51-4.11-3.51-10.56v-.8q0-6.42 3.5-10.56 3.5-4.13 10-4.13 5.38 0 8.66 3.06 3.29 3.06 3.19 8.05l-.06.16h-7.14q0-2.25-1.24-3.74-1.23-1.49-3.41-1.49-3.11 0-4.39 2.41-1.27 2.42-1.27 6.24v.8q0 3.89 1.27 6.27 1.28 2.38 4.42 2.38m24.52-23.61v29.06h-7.84v-29.06zm0-12.83v5.88h-7.84v-5.88zm5.24 27.66v-.57q0-6.5 3.62-10.65 3.63-4.14 10.05-4.14 6.44 0 10.09 4.13 3.66 4.14 3.66 10.66v.57q0 6.55-3.64 10.67t-10.06 4.12q-6.45 0-10.08-4.12-3.64-4.12-3.64-10.67m7.81-.57v.57q0 3.97 1.4 6.37 1.39 2.41 4.51 2.41 3.03 0 4.44-2.42t1.41-6.36v-.57q0-3.86-1.42-6.31-1.42-2.44-4.48-2.44-3.04 0-4.45 2.46-1.41 2.45-1.41 6.29m42.89 14.8-.7-4.19q-1.34 2.28-3.41 3.52-2.07 1.23-4.75 1.23-4.59 0-7.19-2.94-2.59-2.94-2.59-9.14v-17.54h7.82v17.59q0 3.17 1.07 4.55 1.08 1.39 3.17 1.39 1.88 0 3.22-.61 1.35-.6 2.21-1.78v-21.14h7.84v29.06zm28.31-8q0-1.29-1.25-2.23t-4.64-1.67q-5.15-1.04-7.77-3.1-2.62-2.05-2.62-5.6 0-3.76 3.16-6.38 3.15-2.61 8.44-2.61 5.56 0 8.85 2.6 3.29 2.61 3.16 6.58l-.06.16h-7.57q0-1.74-1.11-2.85-1.12-1.1-3.27-1.1-1.9 0-2.99.93t-1.09 2.32q0 1.35 1.14 2.2 1.14.86 4.63 1.54 5.38 1.07 7.98 3.15 2.61 2.08 2.61 5.73 0 3.93-3.36 6.41t-8.86 2.48q-5.8 0-9.17-2.94-3.38-2.94-3.21-6.7l.05-.16h7.17q.08 2.34 1.53 3.39 1.45 1.04 3.79 1.04 2.17 0 3.31-.86 1.15-.86 1.15-2.33m51.21-14.29v6.04h-16.38v16.25h-7.84v-39.1h26.96v6.04h-19.12v10.77zm4.22 8.06v-.57q0-6.5 3.62-10.65 3.63-4.14 10.04-4.14 6.45 0 10.1 4.13 3.65 4.14 3.65 10.66v.57q0 6.55-3.63 10.67-3.64 4.12-10.06 4.12-6.45 0-10.09-4.12-3.63-4.12-3.63-10.67m7.81-.57v.57q0 3.97 1.4 6.37 1.39 2.41 4.51 2.41 3.03 0 4.44-2.42t1.41-6.36v-.57q0-3.86-1.42-6.31-1.42-2.44-4.49-2.44-3.03 0-4.44 2.46-1.41 2.45-1.41 6.29m23.23.57v-.57q0-6.5 3.63-10.65 3.62-4.14 10.04-4.14 6.44 0 10.1 4.13 3.65 4.14 3.65 10.66v.57q0 6.55-3.64 10.67t-10.06 4.12q-6.44 0-10.08-4.12t-3.64-10.67m7.82-.57v.57q0 3.97 1.39 6.37 1.4 2.41 4.51 2.41 3.04 0 4.45-2.42t1.41-6.36v-.57q0-3.86-1.43-6.31-1.42-2.44-4.48-2.44-3.04 0-4.45 2.46-1.4 2.45-1.4 6.29m23.23 1.08v-.57q0-6.87 2.96-11.09 2.97-4.21 8.37-4.21 2.17 0 3.92.94 1.74.94 3.06 2.68v-15.92h7.87v41.89h-6.74l-.65-3.54q-1.37 2.01-3.23 3.06-1.87 1.04-4.29 1.04-5.34 0-8.31-3.92-2.96-3.92-2.96-10.36m7.81-.57v.57q0 3.81 1.29 6t4.19 2.19q1.69 0 2.95-.69 1.26-.68 2.07-2v-12.38q-.81-1.37-2.05-2.13-1.25-.77-2.92-.77-2.87 0-4.2 2.55t-1.33 6.66"/></svg>